<mxfile host="65bd71144e">
    <diagram id="1MXiTDtxO672CZS4rSf5" name="Page-1">
        <mxGraphModel dx="990" dy="1420" grid="1" gridSize="10" guides="1" tooltips="1" connect="1" arrows="1" fold="1" page="1" pageScale="1" pageWidth="850" pageHeight="1100" math="0" shadow="0">
            <root>
                <mxCell id="0"/>
                <mxCell id="1" parent="0"/>
                <mxCell id="2" value="Eden&lt;br&gt;(8/10)" style="rounded=0;whiteSpace=wrap;html=1;fillColor=#1ba1e2;fontColor=#ffffff;strokeColor=#006EAF;" vertex="1" parent="1">
                    <mxGeometry x="80" y="480" width="240" height="110" as="geometry"/>
                </mxCell>
                <mxCell id="3" value="From&lt;br&gt;(1/10)" style="rounded=0;whiteSpace=wrap;html=1;fillColor=#008a00;fontColor=#ffffff;strokeColor=#005700;" vertex="1" parent="1">
                    <mxGeometry x="320" y="480" width="120" height="110" as="geometry"/>
                </mxCell>
                <mxCell id="4" value="to&lt;br&gt;(1/10)" style="rounded=0;whiteSpace=wrap;html=1;fillColor=#008a00;fontColor=#ffffff;strokeColor=#005700;" vertex="1" parent="1">
                    <mxGeometry x="440" y="480" width="120" height="110" as="geometry"/>
                </mxCell>
                <mxCell id="5" value="Old 区" style="rounded=0;whiteSpace=wrap;html=1;fillColor=#f0a30a;fontColor=#000000;strokeColor=#BD7000;" vertex="1" parent="1">
                    <mxGeometry x="600" y="480" width="400" height="110" as="geometry"/>
                </mxCell>
                <mxCell id="6" value="" style="shape=curlyBracket;whiteSpace=wrap;html=1;rounded=1;direction=south;" vertex="1" parent="1">
                    <mxGeometry x="80" y="420" width="920" height="40" as="geometry"/>
                </mxCell>
                <mxCell id="10" value="Heap" style="text;html=1;strokeColor=none;fillColor=none;align=center;verticalAlign=middle;whiteSpace=wrap;rounded=0;" vertex="1" parent="1">
                    <mxGeometry x="495" y="370" width="90" height="50" as="geometry"/>
                </mxCell>
                <mxCell id="11" value="" style="shape=curlyBracket;whiteSpace=wrap;html=1;rounded=1;direction=north;" vertex="1" parent="1">
                    <mxGeometry x="80" y="610" width="480" height="30" as="geometry"/>
                </mxCell>
                <mxCell id="12" value="Young&lt;br&gt;新生代(1/3 堆空间)" style="text;html=1;strokeColor=none;fillColor=none;align=center;verticalAlign=middle;whiteSpace=wrap;rounded=0;" vertex="1" parent="1">
                    <mxGeometry x="220" y="640" width="200" height="30" as="geometry"/>
                </mxCell>
                <mxCell id="13" value="" style="shape=curlyBracket;whiteSpace=wrap;html=1;rounded=1;direction=north;" vertex="1" parent="1">
                    <mxGeometry x="600" y="610" width="400" height="30" as="geometry"/>
                </mxCell>
                <mxCell id="14" value="Old&lt;br&gt;老年代(2/3堆空间)" style="text;html=1;strokeColor=none;fillColor=none;align=center;verticalAlign=middle;whiteSpace=wrap;rounded=0;" vertex="1" parent="1">
                    <mxGeometry x="700" y="640" width="200" height="30" as="geometry"/>
                </mxCell>
            </root>
        </mxGraphModel>
    </diagram>
</mxfile>